<svg xmlns="http://www.w3.org/2000/svg" version="1.1" xmlns:xlink="http://www.w3.org/1999/xlink" xmlns:svgjs="http://svgjs.dev/svgjs" width="100%" height="100%" viewBox="0 0 1000 600"><rect width="1000" height="600" x="0" y="0" fill="#00000"/><g><rect width="333.3333333333333" height="333.3333333333333" rx="13.333333333333334" ry="13.333333333333334" y="185.39048182132967" fill="#2187ab" transform="matrix(0.7660804895733129,0,0,0.7660804895733127,0,30.29591029850451)" x="163.16827392578125"/><path d="M208.3378025291636 364.8978277448716L256.50479050415385 364.8978277448716Q235.14202596294479 302.8536800544329 232.925135303008 295.16653971413257L232.925135303008 295.16653971413257Q232.925135303008 295.16653971413257 208.3378025291636 364.8978277448716L208.3378025291636 364.8978277448716ZM297.70440783362847 427.05713858647584L279.6813746762203 427.05713858647584L262.176575699057 379.5811295184789L202.4644818197207 379.5811295184789L184.32628551114698 427.05713858647584L166.5335786560699 427.05713858647584L223.99999108767807 277.0571341933503L241.9366518817121 277.0571341933503L297.70440783362847 427.05713858647584ZM353.55853614891896 427.05713858647584L334.52782541881226 427.05713858647584L289.412660949709 277.3450420712641L307.7236019850311 277.3450420712641L344.777345872546 406.21260822551176L381.80229897226945 280.0801669114459L401.55277939716086 280.0801669114459L437.4836825608117 406.2989805888859L474.82533432624047 277.3450420712641L493.13627536156247 277.3450420712641L447.38771356104877 427.05713858647584L428.27063046756786 427.05713858647584L391.8214931236721 301.24139593811526L353.55853614891896 427.05713858647584Z " fill="#000000" transform="matrix(0.7660804895733129,0,0,0.7660804895733127,0,30.29591029850451)"/><path d="M610.279445919728 344.781482639318L645.3577233573137 344.781482639318Q629.7999936151209 299.59697105653436 628.1855122267801 293.9987044242359L628.1855122267801 293.9987044242359Q628.1855122267801 293.9987044242359 610.279445919728 344.781482639318L610.279445919728 344.781482639318ZM675.3619164315427 390.0498633851324L662.2363924172398 390.0498633851324L649.4882796365752 355.4748009257309L606.0021186051629 355.4748009257309L592.7927254278294 390.0498633851324L579.834939739588 390.0498633851324L621.6856520919018 280.81027853766005L634.7482742339316 280.81027853766005L675.3619164315427 390.0498633851324ZM707.8612171059347 391.51757373816946L707.8612171059347 391.51757373816946Q696.0775997001228 391.51757373816946 691.1712536628276 385.18545192935244Q686.2649076255323 378.8533301205354 686.2649076255323 363.1488293430389L686.2649076255323 363.1488293430389L686.2649076255323 277.79098866855526L698.5098054280129 277.0571334920367L698.5098054280129 358.284417887259Q698.5098054280129 363.2956003783426 698.6146418818012 366.31489024744747Q698.7194783355895 369.33418011655226 699.1597914415007 372.2486335318687Q699.6001045474118 375.1630869471851 700.354927014688 376.6307973002222Q701.0887821912065 378.0985076532592 702.4935906719705 379.3146105172042Q703.8774318619769 380.5307133811492 705.8483571931981 380.9500591963026Q707.7983152336617 381.3484377206984 710.6708340674627 381.3484377206984L710.6708340674627 381.3484377206984Q713.019170632322 381.3484377206984 719.9593438731115 380.4678115088762L719.9593438731115 380.4678115088762L720.6093298865994 390.2805035834668Q713.019170632322 391.51757373816946 707.8612171059347 391.51757373816946ZM759.461719660566 379.5033161340233L759.461719660566 379.5033161340233Q765.73093959711 379.5033161340233 770.4485800175862 377.30175060446766Q775.1662204380625 375.0792177841544 777.829066364287 371.1793017032274Q780.4709449997536 367.27938562230037 781.7709170267293 362.4778760387934Q783.0499217629473 357.69733374604414 783.0499217629473 352.015197950715L783.0499217629473 352.015197950715L783.0499217629473 346.03952008477836Q783.0499217629473 340.14771138187245 781.7289824452139 335.17846347230414Q780.4080431274806 330.1882482719782 777.6403607474679 326.2463976095358Q774.8726783674551 322.3045469470934 770.2598744007673 320.1029814175378Q765.6470704340793 317.8804485972246 759.5455888235967 317.8804485972246L759.5455888235967 317.8804485972246Q754.4505371694823 317.8804485972246 750.2780463087056 319.8094393469304Q746.1265227386865 321.7174628058786 743.4217422309467 324.8415891287717Q740.7379290139647 327.9866827424226 738.8718401365319 332.1382063124417Q736.9847839683414 336.31069717321844 736.1670596287922 340.58802448778357Q735.3703025800006 344.86535180234875 735.3703025800006 349.20558098918684L735.3703025800006 349.20558098918684Q735.3703025800006 353.482908303752 736.2509287918228 357.69733374604414Q737.1315550036451 361.8907918975786 739.0395784625932 365.8745771415363Q740.9685692122991 369.85836238549405 743.6943170107966 372.8357176730835Q746.4200648092939 375.81307296067297 750.50868650704 377.6581945473481Q754.597308204786 379.5033161340233 759.461719660566 379.5033161340233ZM754.156995098875 427.05713157242394L740.528256106388 427.05713157242394L739.4169896962314 415.92350018009995L754.4505371694823 415.92350018009995Q760.7197571060263 415.92350018009995 765.3535283634719 415.0428739682777Q770.0082669116752 414.1622477564555 773.1114259438107 412.1284205529613Q776.1936176851884 410.09459334946706 778.1226084348943 407.62045304006176Q780.0306318938425 405.16728002141406 781.0160945594531 401.2254293589717Q782.0225245158214 397.28357869652933 782.3580011679442 393.40462990635996Q782.6934778200668 389.5256811161906 782.6934778200668 383.9274144838921L782.6934778200668 383.9274144838921L782.6934778200668 376.77756833552587Q778.269379470198 383.1306574351006 772.4404726395651 386.54832582860115Q766.6115658089323 389.9659942221017 757.6165980738908 389.9659942221017L757.6165980738908 389.9659942221017Q750.697392123859 389.9659942221017 744.8265507117108 387.57572307572707Q738.9766765903203 385.18545192935244 734.9509567648472 381.20166668539474Q730.9462042301318 377.217881441437 728.0946526870883 371.9970260427766Q725.2640684348027 366.7552033533585 723.9640964078269 361.15693672106005Q722.6850916716089 355.5586700887616 722.6850916716089 349.8765342934324L722.6850916716089 349.8765342934324Q722.6850916716089 341.0283375936947 724.8656899104069 333.52204750244806Q727.0253208584471 325.9947901204437 731.3026481730122 320.1029814175378Q735.5799754875774 314.19020542387426 742.5411160191245 310.8354389026467Q749.5232238414294 307.48067238141914 758.4972242857131 307.48067238141914L758.4972242857131 307.48067238141914Q766.4647947736286 307.48067238141914 772.3985380580498 310.54189683203924Q778.3322813424711 313.6031212826594 783.0499217629473 319.95621038223413L783.0499217629473 319.95621038223413L783.0499217629473 309.1790229327906L795.0641793670935 309.1790229327906L795.0641793670935 384.22095655449954Q795.0641793670935 389.3789100808869 794.8125718780014 393.25785887105627Q794.5609643889094 397.1368076612256 793.5545344325411 401.8544480817019Q792.5690717669305 406.57208850217813 790.8707212155591 409.9478223141634Q789.1723706641876 413.34452341690627 786.1111462135675 416.7621918104069Q783.0499217629473 420.2008274946651 778.8145290298976 422.29755657043233Q774.5791362968478 424.39428564619953 768.3099163603038 425.73619225469054Q762.0406964237598 427.05713157242394 754.156995098875 427.05713157242394L754.156995098875 427.05713157242394ZM824.5441901723807 349.7926651304017L824.5441901723807 349.7926651304017Q824.5441901723807 364.17622659016484 830.9392138534707 372.8357176730835Q837.3132702438031 381.4952087560021 849.537200755526 381.4952087560021L849.537200755526 381.4952087560021Q861.6353275227028 381.4952087560021 867.7787437147008 372.87765225459884Q873.9431271974565 364.26009575319557 873.9431271974565 349.645894095098L873.9431271974565 349.645894095098Q873.9431271974565 334.8429868201814 867.8626128777314 326.33026677256646Q861.7820985580065 317.8175467249515 849.3275278479492 317.8175467249515L849.3275278479492 317.8175467249515Q837.2294010807724 317.8175467249515 830.8972792719553 326.5189723893855Q824.5441901723807 335.19943076306186 824.5441901723807 349.7926651304017ZM886.6912399781212 349.582992222825L886.6912399781212 349.582992222825Q886.6912399781212 368.3696847416993 876.668874995954 380.06943298448044Q866.6465100137865 391.7482139365039 848.9501166143111 391.7482139365039L848.9501166143111 391.7482139365039Q831.9246765190813 391.7482139365039 821.8603769553986 379.94362923993435Q811.7960773917159 368.1600118341226 811.7960773917159 349.645894095098L811.7960773917159 349.645894095098Q811.7960773917159 330.775332413193 821.902311536914 319.1384860426849Q832.008545682112 307.48067238141914 849.6210699185567 307.48067238141914L849.6210699185567 307.48067238141914Q866.940052084394 307.48067238141914 876.8156460312575 319.1804206242002Q886.6912399781212 330.85920157622365 886.6912399781212 349.582992222825ZM940.2836351547314 390.0498633851324L926.4242559639101 390.0498633851324L893.54754405588 281.01995144523676L906.8827409777596 281.01995144523676L933.8676441828837 374.8695448765777L960.8525473880079 283.01184406721563L975.2151415570133 283.01184406721563L1001.3823204225884 374.93244674885074L1028.597863826047 281.01995144523676L1041.9330607479264 281.01995144523676L1008.6160357339852 390.0498633851324L994.6727873801333 390.0498633851324L968.1491645716778 298.42280277410475L940.2836351547314 390.0498633851324ZM1054.618271656318 309.1790229327906L1066.9889732033448 309.1790229327906L1066.9889732033448 390.0498633851324L1054.618271656318 390.0498633851324L1054.618271656318 309.1790229327906ZM1054.618271656318 279.7828812905341L1066.9889732033448 279.7828812905341L1066.9889732033448 294.376115657874L1054.618271656318 294.376115657874L1054.618271656318 279.7828812905341ZM1142.1776778603576 380.3210404735725L1142.1776778603576 390.0498633851324L1085.712763849946 390.0498633851324L1085.712763849946 380.7613535794836L1127.0812285148336 318.9078458443505L1086.8240302601025 318.9078458443505L1086.8240302601025 309.1790229327906L1140.856738542624 309.1790229327906L1140.856738542624 318.9078458443505L1099.5721430407675 380.3210404735725L1142.1776778603576 380.3210404735725Z " fill="#2187ab" transform="matrix(0.7660804895733129,0,0,0.7660804895733127,0,30.29591029850451)"/></g></svg>